<svg width="16" height="16" viewBox="0 0 16 16" fill="none" xmlns="http://www.w3.org/2000/svg">
<path d="M5.48099 9.247C5.37149 9.847 4.93749 12.644 4.80899 13.4345C4.79949 13.491 4.77749 13.5125 4.71499 13.5125H2.38399C2.3293 13.5129 2.27517 13.5014 2.22532 13.4789C2.17546 13.4564 2.13107 13.4234 2.09517 13.3821C2.05927 13.3408 2.03271 13.2923 2.01732 13.2398C2.00193 13.1873 1.99806 13.1321 2.00599 13.078L3.83749 1.456C3.86272 1.30844 3.93926 1.17453 4.05362 1.07792C4.16798 0.981315 4.31279 0.928215 4.46249 0.927998C9.22199 0.927998 9.62199 0.812498 10.8375 1.2845C12.7155 2.0125 12.8875 3.769 12.2125 5.669C11.5405 7.6255 9.94699 8.466 7.83449 8.491C6.47849 8.513 5.66249 8.272 5.48149 9.247H5.48099ZM13.1595 4.75C13.103 4.7095 13.0815 4.6935 13.0655 4.7905C12.9999 5.1468 12.9079 5.49776 12.7905 5.8405C11.5435 9.397 8.08749 9.0875 6.39999 9.0875C6.20949 9.0875 6.08449 9.1905 6.05949 9.381C5.35349 13.7685 5.21249 14.684 5.21249 14.684C5.18099 14.906 5.32199 15.087 5.54349 15.087H7.52799C7.79699 15.087 8.01849 14.89 8.07199 14.6215C8.09399 14.453 8.03749 14.812 8.52199 11.7685C8.66599 11.081 8.96899 11.153 9.43749 11.153C11.6565 11.153 13.3875 10.253 13.903 7.6435C14.106 6.556 14.047 5.412 13.1595 4.7495V4.75Z" fill="white"/>
</svg>
